# xmcd
#
# Track frame offsets:
#	150
#	25350
#	63625
#	99904
#	122672
#	165647
#	201485
#	239776
#
# Disc length: 3833
#
# Revision: 1
# Processed by: cddbd v1.5.1PL0 Copyright (c) Steve Scherf et al.
# Submitted via: CDex 1.51
# Normalized: r0:TRMNUM
#
DISCID=720ef708
DTITLE=Wayne Shorter - Footprints Live
DYEAR=2002
DGENRE=Jazz
TTITLE0=Sanctuary
TTITLE1=Masquelero
TTITLE2=Ualse Triste
TTITLE3=Go
TTITLE4=Aung san suu Kyi
TTITLE5=Footprints
TTITLE6=Atlantis
TTITLE7=JuJu
EXTD=YEAR: 2002
EXTT0=
EXTT1=
EXTT2=
EXTT3=
EXTT4=
EXTT5=
EXTT6=
EXTT7=
PLAYORDER=
